<svg width="512" height="512" viewBox="0 0 512 512" fill="none" xmlns="http://www.w3.org/2000/svg">
<g clip-path="url(#clip0_203_8)">
<path d="M256 512C397.385 512 512 397.385 512 256C512 114.615 397.385 0 256 0C114.615 0 0 114.615 0 256C0 397.385 114.615 512 256 512Z" fill="#E5AA17"/>
<path fill-rule="evenodd" clip-rule="evenodd" d="M174.378 259.95L101 189.783L174.378 119.616V153.757H301.688C331.786 153.757 359.123 166.044 378.918 185.839C398.713 205.635 411 232.971 411 263.07C411 293.168 398.713 320.505 378.917 340.3C359.122 360.096 331.785 372.382 301.687 372.382H133.86V300.33H301.687C311.896 300.33 321.204 296.127 327.974 289.356C334.745 282.585 338.948 273.278 338.948 263.069C338.948 252.86 334.745 243.552 327.974 236.782C321.203 230.011 311.896 225.809 301.687 225.809H174.377V259.95H174.378Z" fill="white"/>
</g>
<defs>
<clipPath id="clip0_203_8">
<rect width="512" height="512" fill="white"/>
</clipPath>
</defs>
</svg>
