<svg xmlns="http://www.w3.org/2000/svg" xmlns:xlink="http://www.w3.org/1999/xlink" width="500" zoomAndPan="magnify" viewBox="0 0 375 149.999998" height="200" preserveAspectRatio="xMidYMid meet" version="1.0"><defs><g/><clipPath id="535f3d4130"><path d="M 62.742188 2.191406 L 246 2.191406 L 246 65.921875 L 62.742188 65.921875 Z M 62.742188 2.191406 " clip-rule="nonzero"/></clipPath></defs><g fill="#ffffff" fill-opacity="1"><g transform="translate(0.141384, 144.36324)"><g><path d="M 52.390625 1.75 C 43.222656 1.75 34.988281 -0.1875 27.6875 -4.0625 C 20.394531 -7.9375 14.664062 -13.332031 10.5 -20.25 C 6.332031 -27.164062 4.25 -35.003906 4.25 -43.765625 C 4.25 -52.515625 6.332031 -60.347656 10.5 -67.265625 C 14.664062 -74.179688 20.394531 -79.578125 27.6875 -83.453125 C 34.988281 -87.328125 43.222656 -89.265625 52.390625 -89.265625 C 60.390625 -89.265625 67.597656 -87.847656 74.015625 -85.015625 C 80.429688 -82.179688 85.765625 -78.097656 90.015625 -72.765625 L 74.265625 -58.515625 C 68.597656 -65.347656 61.722656 -68.765625 53.640625 -68.765625 C 48.890625 -68.765625 44.660156 -67.722656 40.953125 -65.640625 C 37.242188 -63.554688 34.363281 -60.617188 32.3125 -56.828125 C 30.269531 -53.035156 29.25 -48.679688 29.25 -43.765625 C 29.25 -38.847656 30.269531 -34.488281 32.3125 -30.6875 C 34.363281 -26.894531 37.242188 -23.957031 40.953125 -21.875 C 44.660156 -19.789062 48.890625 -18.75 53.640625 -18.75 C 61.722656 -18.75 68.597656 -22.164062 74.265625 -29 L 90.015625 -14.75 C 85.765625 -9.414062 80.429688 -5.332031 74.015625 -2.5 C 67.597656 0.332031 60.390625 1.75 52.390625 1.75 Z M 52.390625 1.75 "/></g></g></g><g fill="#ffffff" fill-opacity="1"><g transform="translate(82.900834, 144.36324)"><g><path d="M 52.890625 1.75 C 43.640625 1.75 35.320312 -0.207031 27.9375 -4.125 C 20.5625 -8.039062 14.769531 -13.457031 10.5625 -20.375 C 6.351562 -27.289062 4.25 -35.085938 4.25 -43.765625 C 4.25 -52.429688 6.351562 -60.222656 10.5625 -67.140625 C 14.769531 -74.054688 20.5625 -79.472656 27.9375 -83.390625 C 35.320312 -87.304688 43.640625 -89.265625 52.890625 -89.265625 C 62.140625 -89.265625 70.453125 -87.304688 77.828125 -83.390625 C 85.203125 -79.472656 90.992188 -74.054688 95.203125 -67.140625 C 99.421875 -60.222656 101.53125 -52.429688 101.53125 -43.765625 C 101.53125 -35.085938 99.421875 -27.289062 95.203125 -20.375 C 90.992188 -13.457031 85.203125 -8.039062 77.828125 -4.125 C 70.453125 -0.207031 62.140625 1.75 52.890625 1.75 Z M 52.890625 -18.75 C 57.304688 -18.75 61.304688 -19.789062 64.890625 -21.875 C 68.472656 -23.957031 71.304688 -26.894531 73.390625 -30.6875 C 75.472656 -34.488281 76.515625 -38.847656 76.515625 -43.765625 C 76.515625 -48.679688 75.472656 -53.035156 73.390625 -56.828125 C 71.304688 -60.617188 68.472656 -63.554688 64.890625 -65.640625 C 61.304688 -67.722656 57.304688 -68.765625 52.890625 -68.765625 C 48.472656 -68.765625 44.472656 -67.722656 40.890625 -65.640625 C 37.304688 -63.554688 34.46875 -60.617188 32.375 -56.828125 C 30.289062 -53.035156 29.25 -48.679688 29.25 -43.765625 C 29.25 -38.847656 30.289062 -34.488281 32.375 -30.6875 C 34.46875 -26.894531 37.304688 -23.957031 40.890625 -21.875 C 44.472656 -19.789062 48.472656 -18.75 52.890625 -18.75 Z M 52.890625 -18.75 "/></g></g></g><g fill="#ffffff" fill-opacity="1"><g transform="translate(179.161959, 144.36324)"><g><path d="M 8.75 -87.515625 L 50.140625 -87.515625 C 59.722656 -87.515625 68.222656 -85.722656 75.640625 -82.140625 C 83.054688 -78.554688 88.804688 -73.472656 92.890625 -66.890625 C 96.984375 -60.304688 99.03125 -52.597656 99.03125 -43.765625 C 99.03125 -34.921875 96.984375 -27.207031 92.890625 -20.625 C 88.804688 -14.039062 83.054688 -8.957031 75.640625 -5.375 C 68.222656 -1.789062 59.722656 0 50.140625 0 L 8.75 0 Z M 49.140625 -19.75 C 56.640625 -19.75 62.660156 -21.875 67.203125 -26.125 C 71.742188 -30.382812 74.015625 -36.265625 74.015625 -43.765625 C 74.015625 -51.265625 71.742188 -57.140625 67.203125 -61.390625 C 62.660156 -65.640625 56.640625 -67.765625 49.140625 -67.765625 L 33.515625 -67.765625 L 33.515625 -19.75 Z M 49.140625 -19.75 "/></g></g></g><g fill="#ffffff" fill-opacity="1"><g transform="translate(272.92278, 144.36324)"><g><path d="M 79.015625 -19.125 L 79.015625 0 L 8.75 0 L 8.75 -87.515625 L 77.390625 -87.515625 L 77.390625 -68.390625 L 33.265625 -68.390625 L 33.265625 -53.640625 L 72.140625 -53.640625 L 72.140625 -35.140625 L 33.265625 -35.140625 L 33.265625 -19.125 Z M 79.015625 -19.125 "/></g></g></g><g clip-path="url(#535f3d4130)"><path fill="#30d4ff" d="M 241.855469 22.644531 C 241.773438 22.273438 241.699219 21.914062 241.597656 21.558594 L 241.285156 20.507812 C 241.117188 19.816406 240.804688 19.167969 240.59375 18.527344 C 240.035156 17.265625 239.441406 16.085938 238.730469 14.992188 C 237.988281 13.921875 237.21875 12.890625 236.3125 11.976562 C 234.515625 10.148438 232.402344 8.628906 229.898438 7.515625 L 229.425781 7.292969 L 228.941406 7.109375 C 228.613281 6.988281 228.285156 6.851562 227.945312 6.730469 C 227.265625 6.546875 226.5625 6.269531 225.828125 6.105469 C 225.09375 5.921875 224.335938 5.777344 223.542969 5.644531 C 222.746094 5.515625 221.921875 5.421875 221.039062 5.316406 C 222.316406 4.089844 223.941406 3.261719 225.675781 2.742188 C 226.542969 2.480469 227.445312 2.371094 228.367188 2.246094 C 228.828125 2.195312 229.285156 2.214844 229.753906 2.203125 L 230.457031 2.203125 C 230.691406 2.214844 230.917969 2.246094 231.15625 2.269531 C 234.90625 2.617188 238.558594 4.449219 241.230469 7.210938 C 242.585938 8.585938 243.644531 10.226562 244.460938 11.953125 C 245.25 13.699219 245.699219 15.578125 245.859375 17.445312 C 245.878906 17.914062 245.867188 18.386719 245.863281 18.847656 C 245.859375 19.082031 245.867188 19.308594 245.847656 19.542969 C 245.824219 19.773438 245.789062 20.003906 245.761719 20.230469 C 245.691406 20.691406 245.648438 21.140625 245.550781 21.585938 C 245.449219 22.035156 245.335938 22.472656 245.195312 22.90625 C 244.621094 24.625 243.746094 26.214844 242.480469 27.457031 C 242.351562 25.695312 242.175781 24.125 241.855469 22.644531 Z M 66.886719 22.644531 C 66.96875 22.273438 67.042969 21.914062 67.144531 21.558594 L 67.457031 20.507812 C 67.625 19.816406 67.933594 19.167969 68.148438 18.527344 C 68.707031 17.265625 69.300781 16.085938 70.011719 14.992188 C 70.753906 13.921875 71.523438 12.890625 72.429688 11.976562 C 74.230469 10.148438 76.339844 8.628906 78.84375 7.515625 L 79.316406 7.292969 L 79.800781 7.109375 C 80.128906 6.988281 80.457031 6.851562 80.796875 6.730469 C 81.476562 6.546875 82.179688 6.269531 82.914062 6.105469 C 83.644531 5.921875 84.40625 5.777344 85.203125 5.644531 C 85.996094 5.515625 86.820312 5.421875 87.703125 5.316406 C 86.425781 4.089844 84.804688 3.261719 83.066406 2.742188 C 82.199219 2.480469 81.296875 2.371094 80.375 2.246094 C 79.914062 2.195312 79.457031 2.214844 78.988281 2.203125 L 78.285156 2.203125 C 78.050781 2.214844 77.824219 2.246094 77.589844 2.269531 C 73.835938 2.617188 70.183594 4.449219 67.511719 7.210938 C 66.160156 8.585938 65.097656 10.226562 64.28125 11.953125 C 63.488281 13.699219 63.042969 15.578125 62.882812 17.445312 C 62.867188 17.914062 62.875 18.386719 62.878906 18.847656 C 62.882812 19.082031 62.875 19.308594 62.894531 19.542969 C 62.914062 19.773438 62.953125 20.003906 62.980469 20.230469 C 63.050781 20.691406 63.09375 21.140625 63.191406 21.585938 C 63.292969 22.035156 63.40625 22.472656 63.550781 22.90625 C 64.121094 24.625 64.996094 26.214844 66.261719 27.457031 C 66.394531 25.695312 66.5625 24.125 66.886719 22.644531 Z M 232.363281 10.46875 C 231.8125 11.238281 231.253906 12.003906 230.675781 12.761719 L 229.816406 13.90625 L 229.386719 14.480469 L 228.929688 15.03125 L 227.070312 17.207031 L 226.128906 18.292969 L 225.136719 19.328125 C 223.8125 20.710938 222.476562 22.097656 221.042969 23.375 L 218.910156 25.320312 C 218.175781 25.941406 217.425781 26.546875 216.683594 27.164062 C 214.75 28.738281 206.539062 37.75 206.039062 38.351562 C 205.550781 38.972656 205.046875 39.574219 204.550781 40.191406 C 204.050781 40.804688 203.554688 41.421875 203.015625 41.996094 C 198.816406 46.730469 193.957031 50.957031 188.589844 54.507812 C 187.914062 54.949219 187.25 55.402344 186.5625 55.824219 L 184.46875 57.042969 C 183.082031 57.878906 181.617188 58.570312 180.160156 59.289062 C 177.25 60.730469 174.191406 61.871094 171.089844 62.894531 C 170.324219 63.183594 169.519531 63.355469 168.730469 63.574219 L 166.355469 64.203125 C 164.761719 64.539062 163.160156 64.867188 161.550781 65.160156 C 161.535156 65.164062 161.519531 65.164062 161.503906 65.164062 L 159.082031 65.46875 C 158.261719 65.554688 157.449219 65.703125 156.625 65.726562 L 154.160156 65.867188 L 152.925781 65.941406 C 152.515625 65.957031 152.101562 65.945312 151.691406 65.941406 L 149.21875 65.890625 C 148.804688 65.878906 148.394531 65.886719 147.984375 65.851562 L 146.75 65.75 C 145.109375 65.597656 143.460938 65.511719 141.839844 65.199219 L 139.402344 64.792969 C 138.59375 64.660156 137.796875 64.433594 136.996094 64.253906 L 134.597656 63.683594 C 133.804688 63.476562 133.03125 63.195312 132.25 62.953125 L 129.910156 62.195312 C 129.144531 61.910156 128.386719 61.597656 127.628906 61.296875 C 126.867188 60.996094 126.109375 60.695312 125.359375 60.378906 C 124.621094 60.03125 123.894531 59.664062 123.164062 59.308594 L 120.976562 58.226562 C 120.265625 57.84375 119.566406 57.429688 118.867188 57.019531 L 116.78125 55.777344 C 116.089844 55.367188 115.441406 54.878906 114.769531 54.4375 C 113.441406 53.523438 112.105469 52.632812 110.875 51.601562 L 109.003906 50.101562 L 108.074219 49.34375 C 107.773438 49.085938 107.484375 48.804688 107.191406 48.535156 C 106.03125 47.445312 104.835938 46.394531 103.71875 45.273438 L 100.480469 41.804688 L 100.097656 41.382812 C 100.089844 41.371094 100.082031 41.363281 100.074219 41.351562 L 99.710938 40.910156 L 98.964844 39.992188 C 98.46875 39.382812 88.6875 28.460938 86.808594 26.910156 L 85.691406 26 L 85.132812 25.546875 L 84.597656 25.0625 L 82.46875 23.121094 L 80.363281 21.171875 C 79.671875 20.511719 79.03125 19.796875 78.363281 19.113281 L 76.394531 17.035156 L 75.421875 15.992188 L 74.5 14.898438 C 74.484375 14.875 74.464844 14.855469 74.449219 14.835938 C 73.90625 14.167969 74.753906 13.273438 75.449219 13.78125 C 75.464844 13.792969 75.480469 13.804688 75.496094 13.8125 L 76.625 14.65625 L 77.792969 15.449219 L 80.113281 17.035156 C 80.886719 17.5625 81.644531 18.105469 82.421875 18.617188 L 84.792969 20.097656 L 87.144531 21.589844 L 87.714844 21.953125 C 87.722656 21.960938 87.734375 21.964844 87.746094 21.972656 L 88.335938 22.304688 L 89.546875 22.988281 C 95.933594 26.707031 102.519531 29.960938 109.335938 32.503906 C 122.933594 37.660156 137.28125 40.273438 151.660156 40.21875 C 166.03125 40.15625 180.425781 37.554688 194.074219 32.5 C 207.75 27.472656 220.628906 20.085938 232.363281 10.46875 " fill-opacity="1" fill-rule="nonzero"/></g><g fill="#30d4ff" fill-opacity="1"><g transform="translate(284.655746, 48.801987)"><g><path d="M 15.03125 0 L 9.09375 0 C 8.601562 0.09375 8.140625 0.140625 7.703125 0.140625 C 6.484375 0.140625 5.359375 -0.15625 4.328125 -0.75 C 3.304688 -1.34375 2.492188 -2.148438 1.890625 -3.171875 C 1.285156 -4.191406 0.984375 -5.316406 0.984375 -6.546875 C 0.984375 -7.742188 1.285156 -8.859375 1.890625 -9.890625 C 2.492188 -10.921875 3.304688 -11.738281 4.328125 -12.34375 C 5.359375 -12.957031 6.484375 -13.265625 7.703125 -13.265625 C 8.898438 -13.265625 10.007812 -12.957031 11.03125 -12.34375 C 12.0625 -11.738281 12.882812 -10.914062 13.5 -9.875 C 14.113281 -8.84375 14.421875 -7.734375 14.421875 -6.546875 C 14.421875 -5.691406 14.265625 -4.878906 13.953125 -4.109375 C 13.648438 -3.347656 13.222656 -2.664062 12.671875 -2.0625 L 15.03125 -2.0625 Z M 3.15625 -6.546875 C 3.15625 -5.703125 3.359375 -4.921875 3.765625 -4.203125 C 4.171875 -3.492188 4.722656 -2.929688 5.421875 -2.515625 C 6.128906 -2.097656 6.90625 -1.890625 7.75 -1.890625 C 8.582031 -1.890625 9.335938 -2.097656 10.015625 -2.515625 C 10.703125 -2.929688 11.25 -3.492188 11.65625 -4.203125 C 12.0625 -4.921875 12.265625 -5.703125 12.265625 -6.546875 C 12.265625 -7.390625 12.054688 -8.164062 11.640625 -8.875 C 11.234375 -9.582031 10.679688 -10.144531 9.984375 -10.5625 C 9.285156 -10.988281 8.523438 -11.203125 7.703125 -11.203125 C 6.859375 -11.203125 6.085938 -10.988281 5.390625 -10.5625 C 4.703125 -10.144531 4.15625 -9.582031 3.75 -8.875 C 3.351562 -8.164062 3.15625 -7.390625 3.15625 -6.546875 Z M 3.15625 -6.546875 "/></g></g></g><g fill="#30d4ff" fill-opacity="1"><g transform="translate(307.909389, 48.801987)"><g><path d="M 3.703125 -4.71875 C 3.703125 -4.21875 3.832031 -3.75 4.09375 -3.3125 C 4.351562 -2.882812 4.710938 -2.539062 5.171875 -2.28125 C 5.628906 -2.019531 6.128906 -1.890625 6.671875 -1.890625 C 7.234375 -1.890625 7.742188 -2.015625 8.203125 -2.265625 C 8.671875 -2.523438 9.035156 -2.867188 9.296875 -3.296875 C 9.566406 -3.734375 9.703125 -4.207031 9.703125 -4.71875 L 9.703125 -13.125 L 11.78125 -13.125 L 11.78125 -4.671875 C 11.78125 -3.734375 11.550781 -2.898438 11.09375 -2.171875 C 10.644531 -1.441406 10.03125 -0.875 9.25 -0.46875 C 8.46875 -0.0625 7.609375 0.140625 6.671875 0.140625 C 5.734375 0.140625 4.875 -0.0625 4.09375 -0.46875 C 3.320312 -0.875 2.710938 -1.441406 2.265625 -2.171875 C 1.828125 -2.898438 1.609375 -3.734375 1.609375 -4.671875 L 1.609375 -13.125 L 3.703125 -13.125 Z M 3.703125 -4.71875 "/></g></g></g><g fill="#30d4ff" fill-opacity="1"><g transform="translate(328.477144, 48.801987)"><g><path d="M 3.90625 -13.125 L 3.90625 0 L 1.796875 0 L 1.796875 -13.125 Z M 3.90625 -13.125 "/></g></g></g><g fill="#30d4ff" fill-opacity="1"><g transform="translate(341.401835, 48.801987)"><g><path d="M 11.953125 -2.015625 L 11.953125 0 L 0.859375 0 C 0.992188 -0.1875 2.160156 -1.957031 4.359375 -5.3125 C 6.191406 -8.144531 7.457031 -10.078125 8.15625 -11.109375 L 3.28125 -11.109375 C 2.882812 -11.109375 2.519531 -11.222656 2.1875 -11.453125 C 1.851562 -11.679688 1.6875 -11.960938 1.6875 -12.296875 L 1.6875 -13.796875 L 3.640625 -13.796875 L 3.640625 -13.546875 C 3.640625 -13.335938 3.671875 -13.210938 3.734375 -13.171875 C 3.804688 -13.140625 3.960938 -13.125 4.203125 -13.125 L 11.84375 -13.125 L 4.46875 -2.015625 Z M 11.953125 -2.015625 "/></g></g></g></svg>