<svg xmlns="http://www.w3.org/2000/svg" xmlns:xlink="http://www.w3.org/1999/xlink" width="135" zoomAndPan="magnify" viewBox="0 0 101.25 112.499997" height="150" preserveAspectRatio="xMidYMid meet" version="1.0"><defs><clipPath id="d756f79980"><path d="M 10.679688 1.863281 L 77 1.863281 L 77 68 L 10.679688 68 Z M 10.679688 1.863281 " clip-rule="nonzero"/></clipPath><clipPath id="566df7415d"><path d="M 11 2 L 89.597656 2 L 89.597656 104 L 11 104 Z M 11 2 " clip-rule="nonzero"/></clipPath><clipPath id="d8fd326f56"><path d="M 36 101 L 65 101 L 65 109.8125 L 36 109.8125 Z M 36 101 " clip-rule="nonzero"/></clipPath></defs><g clip-path="url(#d756f79980)"><path fill="#ffbd59" d="M 76.300781 34.625 C 76.300781 35.699219 76.25 36.769531 76.144531 37.835938 C 76.039062 38.90625 75.878906 39.964844 75.671875 41.019531 C 75.460938 42.070312 75.203125 43.109375 74.890625 44.136719 C 74.578125 45.164062 74.21875 46.171875 73.808594 47.164062 C 73.394531 48.15625 72.9375 49.125 72.433594 50.070312 C 71.925781 51.019531 71.375 51.9375 70.777344 52.828125 C 70.183594 53.722656 69.542969 54.582031 68.863281 55.410156 C 68.183594 56.242188 67.464844 57.035156 66.703125 57.792969 C 65.945312 58.554688 65.152344 59.273438 64.320312 59.953125 C 63.492188 60.632812 62.632812 61.273438 61.738281 61.867188 C 60.847656 62.464844 59.929688 63.015625 58.980469 63.523438 C 58.035156 64.027344 57.066406 64.484375 56.074219 64.898438 C 55.082031 65.308594 54.074219 65.667969 53.046875 65.980469 C 52.019531 66.292969 50.980469 66.550781 49.929688 66.761719 C 48.875 66.96875 47.816406 67.128906 46.746094 67.234375 C 45.679688 67.339844 44.609375 67.390625 43.535156 67.390625 C 42.464844 67.390625 41.394531 67.339844 40.324219 67.234375 C 39.257812 67.128906 38.195312 66.96875 37.144531 66.761719 C 36.09375 66.550781 35.050781 66.292969 34.027344 65.980469 C 33 65.667969 31.988281 65.308594 31 64.898438 C 30.007812 64.484375 29.039062 64.027344 28.089844 63.523438 C 27.144531 63.015625 26.226562 62.464844 25.332031 61.867188 C 24.441406 61.273438 23.582031 60.632812 22.75 59.953125 C 21.921875 59.273438 21.128906 58.554688 20.367188 57.792969 C 19.609375 57.035156 18.890625 56.242188 18.210938 55.410156 C 17.527344 54.582031 16.890625 53.722656 16.292969 52.828125 C 15.699219 51.9375 15.148438 51.019531 14.640625 50.070312 C 14.136719 49.125 13.675781 48.15625 13.265625 47.164062 C 12.855469 46.171875 12.496094 45.164062 12.183594 44.136719 C 11.871094 43.109375 11.609375 42.070312 11.402344 41.019531 C 11.191406 39.964844 11.035156 38.90625 10.929688 37.835938 C 10.824219 36.769531 10.773438 35.699219 10.773438 34.625 C 10.773438 33.554688 10.824219 32.484375 10.929688 31.414062 C 11.035156 30.347656 11.191406 29.285156 11.402344 28.234375 C 11.609375 27.183594 11.871094 26.140625 12.183594 25.117188 C 12.496094 24.089844 12.855469 23.078125 13.265625 22.089844 C 13.675781 21.097656 14.136719 20.128906 14.640625 19.179688 C 15.148438 18.234375 15.699219 17.316406 16.292969 16.421875 C 16.890625 15.53125 17.527344 14.671875 18.210938 13.839844 C 18.890625 13.011719 19.609375 12.21875 20.367188 11.457031 C 21.128906 10.699219 21.921875 9.980469 22.75 9.300781 C 23.582031 8.617188 24.441406 7.980469 25.332031 7.382812 C 26.226562 6.789062 27.144531 6.238281 28.089844 5.730469 C 29.039062 5.226562 30.007812 4.765625 31 4.355469 C 31.988281 3.945312 33 3.585938 34.027344 3.273438 C 35.050781 2.960938 36.09375 2.699219 37.144531 2.492188 C 38.195312 2.28125 39.257812 2.125 40.324219 2.019531 C 41.394531 1.914062 42.464844 1.863281 43.535156 1.863281 C 44.609375 1.863281 45.679688 1.914062 46.746094 2.019531 C 47.816406 2.125 48.875 2.28125 49.929688 2.492188 C 50.980469 2.699219 52.019531 2.960938 53.046875 3.273438 C 54.074219 3.585938 55.082031 3.945312 56.074219 4.355469 C 57.066406 4.765625 58.035156 5.226562 58.980469 5.730469 C 59.929688 6.238281 60.847656 6.789062 61.738281 7.382812 C 62.632812 7.980469 63.492188 8.617188 64.320312 9.300781 C 65.152344 9.980469 65.945312 10.699219 66.703125 11.457031 C 67.464844 12.21875 68.183594 13.011719 68.863281 13.839844 C 69.542969 14.671875 70.183594 15.53125 70.777344 16.421875 C 71.375 17.316406 71.925781 18.234375 72.433594 19.179688 C 72.9375 20.128906 73.394531 21.097656 73.808594 22.089844 C 74.21875 23.078125 74.578125 24.089844 74.890625 25.117188 C 75.203125 26.140625 75.460938 27.183594 75.671875 28.234375 C 75.878906 29.285156 76.039062 30.347656 76.144531 31.414062 C 76.25 32.484375 76.300781 33.554688 76.300781 34.625 Z M 76.300781 34.625 " fill-opacity="1" fill-rule="nonzero"/></g><g clip-path="url(#566df7415d)"><path fill="#ffffff" d="M 69.28125 103.628906 L 32.417969 103.628906 C 31.792969 103.628906 31.285156 103.121094 31.285156 102.496094 L 31.285156 81.449219 C 31.285156 77.824219 29.609375 74.410156 26.683594 72.085938 C 16.195312 63.75 10.78125 50.78125 12.207031 37.394531 C 14.164062 18.992188 29.589844 4.152344 48.085938 2.871094 C 58.996094 2.117188 69.402344 5.792969 77.363281 13.222656 C 85.21875 20.550781 89.722656 30.910156 89.722656 41.648438 C 89.722656 53.585938 84.347656 64.691406 74.976562 72.117188 C 72.074219 74.414062 70.414062 77.816406 70.414062 81.449219 L 70.414062 102.496094 C 70.414062 103.121094 69.90625 103.628906 69.28125 103.628906 Z M 33.554688 101.363281 L 68.144531 101.363281 L 68.144531 81.449219 C 68.144531 77.121094 70.121094 73.070312 73.566406 70.339844 C 82.390625 63.34375 87.453125 52.886719 87.453125 41.648438 C 87.453125 31.539062 83.210938 21.78125 75.816406 14.878906 C 68.320312 7.886719 58.539062 4.425781 48.242188 5.132812 C 30.824219 6.339844 16.300781 20.308594 14.460938 37.632812 C 13.117188 50.246094 18.214844 62.460938 28.09375 70.3125 C 31.5625 73.066406 33.554688 77.125 33.554688 81.449219 Z M 33.554688 101.363281 " fill-opacity="1" fill-rule="nonzero"/></g><g clip-path="url(#d8fd326f56)"><path fill="#ffffff" d="M 50.574219 110.136719 C 42.523438 110.136719 36.21875 106.78125 36.21875 102.496094 C 36.21875 101.871094 36.726562 101.363281 37.351562 101.363281 C 37.980469 101.363281 38.488281 101.871094 38.488281 102.496094 C 38.488281 105.039062 43.449219 107.871094 50.574219 107.871094 C 57.695312 107.871094 62.660156 105.039062 62.660156 102.496094 C 62.660156 101.871094 63.167969 101.363281 63.796875 101.363281 C 64.421875 101.363281 64.929688 101.871094 64.929688 102.496094 C 64.929688 106.78125 58.625 110.136719 50.574219 110.136719 Z M 50.574219 110.136719 " fill-opacity="1" fill-rule="nonzero"/></g><path fill="#ffffff" d="M 28.03125 82.582031 C 27.441406 82.582031 26.941406 82.125 26.902344 81.527344 C 26.859375 80.902344 27.328125 80.363281 27.953125 80.320312 L 73.589844 77.15625 C 74.230469 77.121094 74.753906 77.585938 74.800781 78.210938 C 74.84375 78.835938 74.371094 79.375 73.746094 79.417969 L 28.109375 82.582031 C 28.082031 82.582031 28.058594 82.582031 28.03125 82.582031 Z M 28.03125 82.582031 " fill-opacity="1" fill-rule="nonzero"/><path fill="#ffffff" d="M 28.03125 89.835938 C 27.441406 89.835938 26.941406 89.378906 26.902344 88.777344 C 26.859375 88.152344 27.328125 87.613281 27.953125 87.570312 L 73.589844 84.40625 C 74.230469 84.375 74.753906 84.835938 74.800781 85.460938 C 74.84375 86.085938 74.371094 86.625 73.746094 86.667969 L 28.109375 89.832031 C 28.082031 89.832031 28.058594 89.835938 28.03125 89.835938 Z M 28.03125 89.835938 " fill-opacity="1" fill-rule="nonzero"/><path fill="#ffffff" d="M 28.03125 97.085938 C 27.441406 97.085938 26.941406 96.628906 26.902344 96.03125 C 26.859375 95.40625 27.328125 94.863281 27.953125 94.820312 L 73.589844 91.65625 C 74.230469 91.617188 74.753906 92.085938 74.800781 92.710938 C 74.84375 93.335938 74.371094 93.875 73.746094 93.917969 L 28.109375 97.082031 C 28.082031 97.085938 28.058594 97.085938 28.03125 97.085938 Z M 28.03125 97.085938 " fill-opacity="1" fill-rule="nonzero"/></svg>