<svg xmlns="http://www.w3.org/2000/svg" xmlns:xlink="http://www.w3.org/1999/xlink" width="600" zoomAndPan="magnify" viewBox="0 0 450 112.499997" height="150" preserveAspectRatio="xMidYMid meet" version="1.0"><defs><g/><clipPath id="45873244c7"><path d="M 387.121094 12.25 L 436 12.25 L 436 61 L 387.121094 61 Z M 387.121094 12.25 " clip-rule="nonzero"/></clipPath><clipPath id="8c99ed2b5a"><path d="M 388 12.25 L 446 12.25 L 446 88 L 388 88 Z M 388 12.25 " clip-rule="nonzero"/></clipPath><clipPath id="924e93dc84"><path d="M 406 86 L 428 86 L 428 92.890625 L 406 92.890625 Z M 406 86 " clip-rule="nonzero"/></clipPath><clipPath id="b221309ea2"><path d="M 0.996094 2 L 101 2 L 101 112.003906 L 0.996094 112.003906 Z M 0.996094 2 " clip-rule="nonzero"/></clipPath></defs><g clip-path="url(#45873244c7)"><path fill="#ffbd59" d="M 435.875 36.59375 C 435.875 37.390625 435.835938 38.183594 435.757812 38.976562 C 435.679688 39.769531 435.5625 40.558594 435.40625 41.339844 C 435.253906 42.121094 435.058594 42.894531 434.828125 43.65625 C 434.597656 44.421875 434.328125 45.171875 434.023438 45.90625 C 433.71875 46.644531 433.378906 47.363281 433 48.066406 C 432.625 48.769531 432.214844 49.453125 431.773438 50.117188 C 431.332031 50.777344 430.855469 51.417969 430.351562 52.035156 C 429.84375 52.652344 429.308594 53.242188 428.746094 53.804688 C 428.183594 54.367188 427.59375 54.902344 426.976562 55.410156 C 426.359375 55.914062 425.71875 56.390625 425.058594 56.832031 C 424.394531 57.273438 423.710938 57.683594 423.007812 58.058594 C 422.304688 58.433594 421.585938 58.777344 420.847656 59.082031 C 420.113281 59.386719 419.363281 59.65625 418.601562 59.886719 C 417.835938 60.117188 417.066406 60.3125 416.28125 60.464844 C 415.5 60.621094 414.714844 60.738281 413.917969 60.816406 C 413.125 60.894531 412.332031 60.933594 411.535156 60.933594 C 410.738281 60.933594 409.941406 60.894531 409.148438 60.816406 C 408.355469 60.738281 407.566406 60.621094 406.785156 60.464844 C 406.003906 60.3125 405.230469 60.117188 404.46875 59.886719 C 403.703125 59.65625 402.953125 59.386719 402.21875 59.082031 C 401.480469 58.777344 400.761719 58.433594 400.058594 58.058594 C 399.355469 57.683594 398.671875 57.273438 398.011719 56.832031 C 397.347656 56.390625 396.707031 55.914062 396.089844 55.410156 C 395.476562 54.902344 394.886719 54.367188 394.320312 53.804688 C 393.757812 53.242188 393.222656 52.652344 392.71875 52.035156 C 392.210938 51.417969 391.738281 50.777344 391.292969 50.117188 C 390.851562 49.453125 390.441406 48.769531 390.066406 48.066406 C 389.691406 47.363281 389.351562 46.644531 389.042969 45.90625 C 388.738281 45.171875 388.472656 44.421875 388.238281 43.65625 C 388.007812 42.894531 387.816406 42.121094 387.660156 41.339844 C 387.503906 40.558594 387.386719 39.769531 387.308594 38.976562 C 387.230469 38.183594 387.191406 37.390625 387.191406 36.59375 C 387.191406 35.792969 387.230469 35 387.308594 34.207031 C 387.386719 33.414062 387.503906 32.625 387.660156 31.84375 C 387.816406 31.0625 388.007812 30.289062 388.238281 29.527344 C 388.472656 28.761719 388.738281 28.011719 389.042969 27.277344 C 389.351562 26.539062 389.691406 25.820312 390.066406 25.117188 C 390.441406 24.414062 390.851562 23.730469 391.292969 23.066406 C 391.738281 22.40625 392.210938 21.765625 392.71875 21.148438 C 393.222656 20.53125 393.757812 19.941406 394.320312 19.378906 C 394.886719 18.816406 395.476562 18.28125 396.089844 17.773438 C 396.707031 17.269531 397.347656 16.796875 398.011719 16.351562 C 398.671875 15.910156 399.355469 15.5 400.058594 15.125 C 400.761719 14.75 401.480469 14.40625 402.21875 14.101562 C 402.953125 13.796875 403.703125 13.53125 404.46875 13.296875 C 405.230469 13.066406 406.003906 12.871094 406.785156 12.71875 C 407.566406 12.5625 408.355469 12.445312 409.148438 12.367188 C 409.941406 12.289062 410.738281 12.25 411.535156 12.25 C 412.332031 12.25 413.125 12.289062 413.917969 12.367188 C 414.714844 12.445312 415.5 12.5625 416.28125 12.71875 C 417.066406 12.871094 417.835938 13.066406 418.601562 13.296875 C 419.363281 13.53125 420.113281 13.796875 420.847656 14.101562 C 421.585938 14.40625 422.304688 14.75 423.007812 15.125 C 423.710938 15.5 424.394531 15.910156 425.058594 16.351562 C 425.71875 16.796875 426.359375 17.269531 426.976562 17.773438 C 427.59375 18.28125 428.183594 18.816406 428.746094 19.378906 C 429.308594 19.941406 429.84375 20.53125 430.351562 21.148438 C 430.855469 21.765625 431.332031 22.40625 431.773438 23.066406 C 432.214844 23.730469 432.625 24.414062 433 25.117188 C 433.378906 25.820312 433.71875 26.539062 434.023438 27.277344 C 434.328125 28.011719 434.597656 28.761719 434.828125 29.527344 C 435.058594 30.289062 435.253906 31.0625 435.40625 31.84375 C 435.5625 32.625 435.679688 33.414062 435.757812 34.207031 C 435.835938 35 435.875 35.792969 435.875 36.59375 Z M 435.875 36.59375 " fill-opacity="1" fill-rule="nonzero"/></g><g clip-path="url(#8c99ed2b5a)"><path fill="#ffffff" d="M 430.660156 87.855469 L 403.273438 87.855469 C 402.808594 87.855469 402.433594 87.480469 402.433594 87.015625 L 402.433594 71.378906 C 402.433594 68.683594 401.1875 66.148438 399.015625 64.421875 C 391.21875 58.230469 387.199219 48.59375 388.257812 38.648438 C 389.710938 24.976562 401.171875 13.949219 414.914062 13 C 423.019531 12.4375 430.75 15.171875 436.667969 20.691406 C 442.5 26.132812 445.847656 33.832031 445.847656 41.808594 C 445.847656 50.675781 441.851562 58.925781 434.890625 64.445312 C 432.738281 66.152344 431.5 68.679688 431.5 71.378906 L 431.5 87.015625 C 431.5 87.480469 431.125 87.855469 430.660156 87.855469 Z M 404.117188 86.171875 L 429.816406 86.171875 L 429.816406 71.378906 C 429.816406 68.160156 431.285156 65.152344 433.84375 63.125 C 440.402344 57.929688 444.160156 50.160156 444.160156 41.808594 C 444.160156 34.296875 441.011719 27.046875 435.515625 21.921875 C 429.949219 16.722656 422.679688 14.15625 415.03125 14.679688 C 402.089844 15.574219 391.300781 25.957031 389.929688 38.828125 C 388.933594 48.195312 392.722656 57.269531 400.0625 63.101562 C 402.640625 65.152344 404.117188 68.167969 404.117188 71.378906 Z M 404.117188 86.171875 " fill-opacity="1" fill-rule="nonzero"/></g><g clip-path="url(#924e93dc84)"><path fill="#ffffff" d="M 416.761719 92.691406 C 410.78125 92.691406 406.097656 90.199219 406.097656 87.015625 C 406.097656 86.550781 406.476562 86.171875 406.941406 86.171875 C 407.40625 86.171875 407.78125 86.550781 407.78125 87.015625 C 407.78125 88.902344 411.46875 91.007812 416.761719 91.007812 C 422.054688 91.007812 425.742188 88.902344 425.742188 87.015625 C 425.742188 86.550781 426.121094 86.171875 426.585938 86.171875 C 427.050781 86.171875 427.425781 86.550781 427.425781 87.015625 C 427.425781 90.199219 422.742188 92.691406 416.761719 92.691406 Z M 416.761719 92.691406 " fill-opacity="1" fill-rule="nonzero"/></g><path fill="#ffffff" d="M 400.015625 72.222656 C 399.574219 72.222656 399.207031 71.882812 399.175781 71.4375 C 399.144531 70.972656 399.492188 70.570312 399.957031 70.539062 L 433.863281 68.191406 C 434.339844 68.164062 434.726562 68.507812 434.761719 68.972656 C 434.792969 69.4375 434.441406 69.839844 433.976562 69.871094 L 400.074219 72.21875 C 400.054688 72.222656 400.035156 72.222656 400.015625 72.222656 Z M 400.015625 72.222656 " fill-opacity="1" fill-rule="nonzero"/><path fill="#ffffff" d="M 400.015625 77.609375 C 399.574219 77.609375 399.207031 77.269531 399.175781 76.824219 C 399.144531 76.359375 399.492188 75.957031 399.957031 75.925781 L 433.863281 73.578125 C 434.339844 73.550781 434.726562 73.894531 434.761719 74.359375 C 434.792969 74.824219 434.441406 75.226562 433.976562 75.257812 L 400.074219 77.605469 C 400.054688 77.609375 400.035156 77.609375 400.015625 77.609375 Z M 400.015625 77.609375 " fill-opacity="1" fill-rule="nonzero"/><path fill="#ffffff" d="M 400.015625 82.996094 C 399.574219 82.996094 399.207031 82.65625 399.175781 82.210938 C 399.144531 81.746094 399.492188 81.34375 399.957031 81.3125 L 433.863281 78.964844 C 434.339844 78.933594 434.726562 79.28125 434.761719 79.746094 C 434.792969 80.210938 434.441406 80.613281 433.976562 80.644531 L 400.074219 82.992188 C 400.054688 82.996094 400.035156 82.996094 400.015625 82.996094 Z M 400.015625 82.996094 " fill-opacity="1" fill-rule="nonzero"/><g clip-path="url(#b221309ea2)"><path stroke-linecap="butt" transform="matrix(0.718219, 0, 0, 0.718219, 4.0754, -17.005396)" fill="none" stroke-linejoin="miter" d="M 61.21206 42.691223 C 73.362341 42.691223 83.745012 45.013591 92.349195 49.652889 C 100.975134 54.270431 107.550644 60.639266 112.070288 68.759396 C 116.589931 76.852332 118.852472 86.076538 118.852472 96.426577 C 118.852472 112.568938 113.625785 125.556794 103.172409 135.401024 L 108.094524 141.818809 C 110.090564 144.418556 111.085865 147.409897 111.085865 150.787392 C 111.085865 154.774033 109.715287 158.211355 106.968692 161.104797 C 104.243853 163.998239 100.839164 165.44496 96.760063 165.44496 C 94.568226 165.44496 92.430777 164.944591 90.342278 163.94929 C 88.253778 162.948551 86.513362 161.556218 85.126468 159.755975 L 76.598428 148.70977 C 74.216233 149.193823 71.747017 149.558223 69.19622 149.802969 C 66.667177 150.06947 64.007604 150.20544 61.21206 150.20544 C 49.083534 150.20544 38.706302 147.89395 30.074925 143.276408 C 21.47618 138.631672 14.90067 132.251958 10.353832 124.137267 C 5.834189 116.017138 3.571648 106.782054 3.571648 96.426577 C 3.571648 86.076538 5.834189 76.852332 10.353832 68.759396 C 14.90067 60.639266 21.47618 54.270431 30.074925 49.652889 C 38.706302 45.013591 49.083534 42.691223 61.21206 42.691223 Z M 61.21206 71.930217 C 53.45633 71.930217 47.441016 74.154687 43.166118 78.598187 C 38.885782 83.025371 36.748333 88.964542 36.748333 96.426577 C 36.748333 103.888611 38.885782 109.893048 43.166118 114.439885 C 47.441016 118.959529 53.45633 121.22207 61.21206 121.22207 C 68.989545 121.22207 75.064686 118.959529 79.442921 114.439885 C 83.815717 109.893048 86.002115 103.888611 86.002115 96.426577 C 86.002115 88.964542 83.815717 83.025371 79.442921 78.598187 C 75.064686 74.154687 68.989545 71.930217 61.21206 71.930217 Z M 61.21206 71.930217 " stroke="#ffffff" stroke-width="2.706624" stroke-opacity="1" stroke-miterlimit="4"/></g><g fill="#00d9ff" fill-opacity="1"><g transform="translate(153.874441, 105.633635)"><g><path d="M -65.546875 -12.921875 C -65.546875 -16.003906 -64.65625 -18.3125 -62.875 -19.84375 C -61.09375 -21.382812 -58.722656 -22.15625 -55.765625 -22.15625 L -8.859375 -22.15625 C -6.023438 -22.15625 -3.6875 -21.382812 -1.84375 -19.84375 C 0 -18.3125 0.921875 -16.003906 0.921875 -12.921875 C 0.921875 -9.910156 0 -7.617188 -1.84375 -6.046875 C -3.6875 -4.472656 -6.023438 -3.6875 -8.859375 -3.6875 L -55.765625 -3.6875 C -58.722656 -3.6875 -61.09375 -4.472656 -62.875 -6.046875 C -64.65625 -7.617188 -65.546875 -9.910156 -65.546875 -12.921875 Z M -65.546875 -12.921875 "/></g></g></g><g fill="#00d9ff" fill-opacity="1"><g transform="translate(268.746177, 35.140427)"><g><path d="M -65.546875 -12.921875 C -65.546875 -16.003906 -64.65625 -18.3125 -62.875 -19.84375 C -61.09375 -21.382812 -58.722656 -22.15625 -55.765625 -22.15625 L -8.859375 -22.15625 C -6.023438 -22.15625 -3.6875 -21.382812 -1.84375 -19.84375 C 0 -18.3125 0.921875 -16.003906 0.921875 -12.921875 C 0.921875 -9.910156 0 -7.617188 -1.84375 -6.046875 C -3.6875 -4.472656 -6.023438 -3.6875 -8.859375 -3.6875 L -55.765625 -3.6875 C -58.722656 -3.6875 -61.09375 -4.472656 -62.875 -6.046875 C -64.65625 -7.617188 -65.546875 -9.910156 -65.546875 -12.921875 Z M -65.546875 -12.921875 "/></g></g></g><g fill="#ff8bd2" fill-opacity="1"><g transform="translate(359.912468, 75.152728)"><g><path d="M -16.5625 -64.71875 C -13.769531 -66.039062 -11.296875 -66.226562 -9.140625 -65.28125 C -6.984375 -64.34375 -5.269531 -62.535156 -4 -59.859375 L 16.1875 -17.53125 C 17.40625 -14.96875 17.71875 -12.523438 17.125 -10.203125 C 16.53125 -7.878906 14.835938 -6.054688 12.046875 -4.734375 C 9.335938 -3.441406 6.875 -3.285156 4.65625 -4.265625 C 2.445312 -5.253906 0.734375 -7.03125 -0.484375 -9.59375 L -20.671875 -51.921875 C -21.941406 -54.597656 -22.25 -57.078125 -21.59375 -59.359375 C -20.945312 -61.640625 -19.269531 -63.425781 -16.5625 -64.71875 Z M -16.5625 -64.71875 "/></g></g></g><path stroke-linecap="butt" transform="matrix(0.731939, 0, 0, 0.731939, 94.70545, -17.210282)" fill="none" stroke-linejoin="miter" d="M 60.922312 42.9821 C 68.383229 42.9821 75.17704 44.145533 81.298408 46.483074 C 87.425113 48.815278 92.47911 51.633135 96.465738 54.941983 C 100.260239 58.122746 102.154821 62.002636 102.154821 66.57098 C 102.154821 71.043261 100.852629 74.554909 98.253583 77.105924 C 95.675884 79.635591 91.993457 80.895088 87.206302 80.895088 C 85.722657 80.895088 84.457824 80.729645 83.417138 80.388087 C 82.371115 80.046528 81.239703 79.523517 80.022901 78.819053 C 76.740737 76.534881 73.63469 74.821752 70.688749 73.679666 C 67.774828 72.510895 64.519349 71.929178 60.922312 71.929178 C 53.461394 71.929178 47.457437 74.127961 42.91044 78.525526 C 38.390128 82.901744 36.127303 88.964406 36.127303 96.71885 C 36.127303 104.499979 38.390128 110.573315 42.91044 114.949532 C 47.457437 119.32575 53.461394 121.508522 60.922312 121.508522 C 64.519349 121.508522 67.774828 120.916132 70.688749 119.726014 C 73.63469 118.535896 76.740737 116.844114 80.022901 114.656006 C 81.239703 113.855478 82.371115 113.305782 83.417138 113.017592 C 84.457824 112.724066 85.722657 112.579971 87.206302 112.579971 C 91.993457 112.579971 95.675884 113.844804 98.253583 116.369135 C 100.852629 118.898802 102.154821 122.41045 102.154821 126.904078 C 102.154821 131.477759 100.260239 135.352313 96.465738 138.538413 C 92.47911 141.815239 87.425113 144.638433 81.298408 146.997321 C 75.17704 149.329525 68.383229 150.492958 60.922312 150.492958 C 49.474767 150.492958 39.409466 148.30485 30.731747 143.933969 C 22.080712 139.557751 15.334933 133.334983 10.499746 125.265665 C 5.685906 117.196347 3.278987 107.680742 3.278987 96.71885 C 3.278987 85.783643 5.685906 76.278712 10.499746 68.209393 C 15.334933 60.140075 22.080712 53.917307 30.731747 49.546426 C 39.409466 45.170209 49.474767 42.9821 60.922312 42.9821 Z M 150.8269 98.832243 C 147.229862 98.832243 144.438689 100.001013 142.442707 102.333217 C 140.473409 104.665421 139.491429 107.776805 139.491429 111.667369 C 139.491429 115.557933 140.473409 118.669317 142.442707 121.001521 C 144.438689 123.333725 147.229862 124.502495 150.8269 124.502495 C 154.40259 124.502495 157.183089 123.333725 159.179071 121.001521 C 161.169716 118.669317 162.167707 115.557933 162.167707 111.667369 C 162.167707 107.776805 161.169716 104.665421 159.179071 102.333217 C 157.183089 100.001013 154.40259 98.832243 150.8269 98.832243 Z M 150.8269 72.84178 C 159.579335 72.84178 167.018905 74.506877 173.140273 77.837072 C 179.266977 81.167267 183.947395 85.772969 187.17619 91.654179 C 190.410322 97.535388 192.027387 104.206452 192.027387 111.667369 C 192.027387 119.128287 190.410322 125.778003 187.17619 131.61118 C 183.947395 137.417674 179.266977 142.023376 173.140273 145.428287 C 167.018905 148.806514 159.579335 150.492958 150.8269 150.492958 C 142.053117 150.492958 134.60821 148.806514 128.481505 145.428287 C 122.381485 142.023376 117.701067 137.417674 114.445588 131.61118 C 111.211456 125.778003 109.594391 119.128287 109.594391 111.667369 C 109.594391 104.206452 111.211456 97.535388 114.445588 91.654179 C 117.701067 85.772969 122.381485 81.167267 128.481505 77.837072 C 134.60821 74.506877 142.053117 72.84178 150.8269 72.84178 Z M 199.482968 111.667369 C 199.482968 99.419297 202.071341 89.887681 207.248086 83.083197 C 212.424831 76.257364 219.805696 72.84178 229.380006 72.84178 C 236.840923 72.84178 243.01566 74.97652 247.898878 79.256675 L 247.898878 58.805862 C 247.898878 54.01337 249.163712 50.186848 251.693379 47.32096 C 254.217709 44.428387 257.926821 42.9821 262.810039 42.9821 C 267.794658 42.9821 271.525116 44.428387 274.001415 47.32096 C 276.509735 50.186848 277.758558 54.01337 277.758558 58.805862 L 277.758558 136.750568 C 277.758558 140.929322 276.664504 144.27019 274.476395 146.77851 C 272.288286 149.254809 268.995449 150.492958 264.597884 150.492958 C 260.830067 150.492958 257.900136 149.521652 255.813428 147.579038 C 253.721382 145.636424 252.419191 142.973336 251.91219 139.595109 C 246.634044 146.858563 239.125095 150.492958 229.380006 150.492958 C 219.805696 150.492958 212.424831 147.093385 207.248086 140.2889 C 202.071341 133.457731 199.482968 123.915442 199.482968 111.667369 Z M 229.380006 111.667369 C 229.380006 120.222341 232.464706 124.502495 238.639442 124.502495 C 244.814178 124.502495 247.898878 120.222341 247.898878 111.667369 C 247.898878 103.112397 244.814178 98.832243 238.639442 98.832243 C 232.464706 98.832243 229.380006 103.112397 229.380006 111.667369 Z M 328.528019 72.84178 C 337.280454 72.84178 344.714688 74.544235 350.841392 77.943809 C 356.968097 81.322036 361.643178 86.002454 364.87731 91.979727 C 368.111441 97.935652 369.728507 104.798842 369.728507 112.579971 C 369.728507 114.768079 369.008032 116.662662 367.577756 118.263717 C 366.142143 119.848761 364.076782 120.638615 361.376336 120.638615 L 319.124488 120.638615 C 321.702187 126.007487 327.023027 128.691923 335.092346 128.691923 C 336.890864 128.691923 339.004257 128.425081 341.437861 127.891395 C 343.866128 127.331026 345.739363 126.605214 347.052228 125.703287 C 349.042873 124.315705 351.327046 123.627252 353.904745 123.627252 C 357.090844 123.627252 359.625849 124.673274 361.525767 126.759983 C 363.420349 128.852029 364.370309 131.488433 364.370309 134.674533 C 364.370309 136.569115 363.916677 138.234212 363.020086 139.664488 C 362.118158 141.100101 361.072135 142.22084 359.882017 143.021367 C 356.311664 145.401603 352.010162 147.248153 346.977512 148.561018 C 341.944862 149.852536 336.586664 150.492958 330.897581 150.492958 C 320.960365 150.492958 312.794983 148.827861 306.401436 145.497666 C 300.034573 142.172808 295.306123 137.636485 292.216087 131.89937 C 289.131387 126.167593 287.589037 119.726014 287.589037 112.579971 C 287.589037 104.798842 289.179419 97.935652 292.365518 91.979727 C 295.572966 86.002454 300.200015 81.322036 306.252004 77.943809 C 312.330677 74.544235 319.754237 72.84178 328.528019 72.84178 Z M 338.662699 102.70146 C 337.082991 97.327251 333.704764 94.642815 328.528019 94.642815 C 325.83291 94.642815 323.607443 95.26189 321.856956 96.500039 C 320.133153 97.738189 318.868319 99.808887 318.067792 102.70146 Z M 338.662699 102.70146 " stroke="#ffffff" stroke-width="2.706624" stroke-opacity="1" stroke-miterlimit="4"/></svg>