<svg width="512" height="512" viewBox="0 0 512 512" fill="none" xmlns="http://www.w3.org/2000/svg">
<path d="M120.437 235.854C112.153 235.854 105.437 229.138 105.437 220.854V219.551C105.437 171.427 66.286 132.275 18.162 132.275H17.51C9.22601 132.275 2.51001 125.559 2.51001 117.275C2.51001 108.991 9.22601 102.275 17.51 102.275H18.161C66.285 102.275 105.436 63.124 105.436 15C105.436 6.716 112.152 0 120.436 0C128.72 0 135.436 6.716 135.436 15V15.646C135.436 63.466 174.34 102.618 222.16 102.919L223.4 102.927H223.454C231.721 102.977 238.389 109.705 238.364 117.972C238.343 124.724 233.865 130.423 227.719 132.284C227.715 132.287 227.706 132.288 227.699 132.29L227.679 132.297C227.673 132.298 227.667 132.3 227.662 132.302L227.658 132.303C226.269 132.718 224.762 132.903 223.272 132.927L223.105 132.926L222.791 132.925C199.489 132.925 177.669 141.92 161.192 158.293C144.582 174.799 135.434 196.785 135.434 220.201V220.854C135.437 229.139 128.721 235.854 120.437 235.854ZM198.26 512C189.976 512 183.26 505.284 183.26 497V495.697C183.26 447.573 144.109 408.422 95.985 408.422H95.334C87.05 408.422 80.334 401.706 80.334 393.422C80.334 385.138 87.05 378.422 95.334 378.422H95.985C144.109 378.422 183.26 339.27 183.26 291.146C183.26 282.862 189.976 276.146 198.26 276.146C206.544 276.146 213.26 282.862 213.26 291.146V291.792C213.26 339.612 252.164 378.764 299.984 379.065L301.289 379.074C309.554 379.131 316.216 385.86 316.187 394.125C316.158 402.39 309.452 409.074 301.187 409.074L301.085 409.073V409.074L300.988 409.073L300.614 409.072C277.313 409.072 255.493 418.067 239.017 434.439C222.407 450.944 213.259 472.93 213.259 496.347V497C213.26 505.284 206.544 512 198.26 512ZM391.562 345.629C383.278 345.629 376.562 338.913 376.562 330.629V329.326C376.562 281.202 337.411 242.051 289.287 242.051H288.636C280.352 242.051 273.636 235.335 273.636 227.051C273.636 218.767 280.352 212.051 288.636 212.051H289.287C337.411 212.051 376.562 172.9 376.562 124.776C376.562 116.492 383.278 109.775 391.562 109.775C399.846 109.775 406.562 116.491 406.562 124.775V125.421C406.562 173.241 445.466 212.393 493.286 212.694L494.592 212.703C502.857 212.76 509.519 219.489 509.49 227.754C509.461 236.019 502.755 242.703 494.49 242.703L494.388 242.702V242.703L494.289 242.702L493.917 242.701C470.616 242.701 448.795 251.697 432.319 268.068C415.709 284.574 406.561 306.559 406.561 329.976V330.629C406.562 338.913 399.846 345.629 391.562 345.629Z" fill="#FFEB37"/>
<path d="M223.455 102.927H223.401L222.161 102.919C174.342 102.617 135.437 63.466 135.437 15.646V15C135.437 6.716 128.721 0 120.437 0V235.854C128.721 235.854 135.437 229.138 135.437 220.854V220.201C135.437 196.785 144.584 174.799 161.195 158.293C177.672 141.92 199.492 132.925 222.794 132.925L223.108 132.926L223.275 132.927C224.764 132.903 226.272 132.718 227.661 132.303L227.665 132.302C227.67 132.3 227.676 132.298 227.682 132.297L227.702 132.29C227.709 132.288 227.718 132.287 227.722 132.284C233.868 130.423 238.346 124.723 238.367 117.972C238.389 109.705 231.721 102.977 223.455 102.927ZM213.26 497V496.347C213.26 472.93 222.407 450.944 239.018 434.439C255.494 418.067 277.314 409.072 300.615 409.072L300.989 409.073L301.086 409.074V409.073L301.188 409.074C309.453 409.074 316.16 402.389 316.188 394.125C316.216 385.861 309.554 379.131 301.29 379.074L299.985 379.065C252.166 378.763 213.261 339.612 213.261 291.792V291.146C213.261 282.862 206.545 276.146 198.261 276.146V512C206.544 512 213.26 505.284 213.26 497ZM494.591 212.702L493.285 212.693C445.466 212.391 406.561 173.24 406.561 125.42V124.774C406.561 116.49 399.845 109.774 391.561 109.774V345.628C399.845 345.628 406.561 338.912 406.561 330.628V329.975C406.561 306.558 415.708 284.573 432.319 268.067C448.795 251.696 470.616 242.7 493.917 242.7L494.289 242.701L494.388 242.702H494.49C502.755 242.702 509.462 236.017 509.49 227.753C509.518 219.489 502.856 212.759 494.591 212.702Z" fill="#FFD354"/>
</svg>
