<svg width="512" height="512" viewBox="0 0 512 512" fill="none" xmlns="http://www.w3.org/2000/svg">
<path fill-rule="evenodd" clip-rule="evenodd" d="M210 206C208 206 206 204 205 202L119 8C118 7 118 4 119 3C120 1 122 0 124 0H169C172 1 174 2 175 4L261 195C262 198 261 201 258 203C255 204 227 202 216 200C216 202 215 204 213 205C212 205 211 206 210 206Z" fill="#FF4755"/>
<path fill-rule="evenodd" clip-rule="evenodd" d="M195 269C191 269 189 266 189 263V219C189 205 200 193 215 193H254C260 193 300 193 302 194C314 196 323 207 323 219V263C323 266 321 269 317 269H195Z" fill="#FF9B1F"/>
<path fill-rule="evenodd" clip-rule="evenodd" d="M292 225H289C288 224 287 223 286 221C273 223 245 224 243 223C240 222 239 218 240 215L337 4C338 2 340 1 343 0H388C390 0 392 1 393 3C394 4 394 7 393 8L297 222C296 224 294 225 292 225Z" fill="#FF4755"/>
<path fill-rule="evenodd" clip-rule="evenodd" d="M216 277C213 277 210 275 210 271V227C210 218 217 212 225 212H287C295 212 302 218 302 227V271C302 275 299 277 296 277H216Z" fill="#C37A1F"/>
<path fill-rule="evenodd" clip-rule="evenodd" d="M256 512C254 512 252 511 251 510L228 480L193 494C191 495 189 495 187 494C186 493 185 491 185 489L179 452L142 446C140 446 138 445 137 443C136 442 136 440 137 438L151 403L121 380C120 378 119 377 119 375C119 373 120 371 121 370L151 347L137 312C136 310 136 308 137 306C138 305 140 304 142 303L179 298L185 260C185 259 186 257 187 256C189 255 191 255 193 256L228 270L251 240C252 239 254 238 256 238C258 238 260 239 261 240L284 270L319 256C321 255 323 255 325 256C326 257 327 259 327 260L333 298L370 303C372 304 374 305 375 306C376 308 376 310 375 312L361 347L391 370C392 371 393 373 393 375C393 377 392 378 391 380L361 403L375 438C376 440 376 442 375 443C374 445 372 446 370 446L333 452L327 489C327 491 326 493 325 494C323 495 321 495 319 494L284 480L261 510C260 511 258 512 256 512Z" fill="#FFE471"/>
<path fill-rule="evenodd" clip-rule="evenodd" d="M256 452C213 452 179 417 179 375C179 332 213 298 256 298C299 298 333 332 333 375C333 417 299 452 256 452Z" fill="#F7A828"/>
<path fill-rule="evenodd" clip-rule="evenodd" d="M277 412H237C235 412 233 411 232 408C231 406 231 404 233 402C234 401 236 399 238 396C247 386 265 366 269 357C270 356 270 355 269 354C266 351 257 348 250 351C244 353 241 357 241 365C241 368 239 371 235 371C232 371 229 368 229 365C229 352 235 343 246 340C257 335 272 338 278 346C282 351 283 358 280 363C275 371 263 386 251 400H277C280 400 283 403 283 406C283 409 280 412 277 412Z" fill="#FFE471"/>
</svg>
