<svg width="512" height="512" viewBox="0 0 512 512" fill="none" xmlns="http://www.w3.org/2000/svg">
<path fill-rule="evenodd" clip-rule="evenodd" d="M166.538 89.0501C161.643 91.5964 155.602 89.6897 153.056 84.795C150.509 79.9003 152.416 73.859 157.311 71.3127C186.832 55.9558 220.37 47.2708 255.92 47.2708C374.097 47.2708 470.041 143.215 470.041 261.392C470.041 379.568 374.097 475.513 255.92 475.513C137.744 475.513 41.7991 379.568 41.7991 261.392C41.7991 225.007 50.8963 190.731 66.9329 160.711C69.5327 155.845 75.5944 154.005 80.4611 156.604C85.3275 159.204 87.1679 165.266 84.5681 170.132C70.0322 197.342 61.793 228.412 61.793 261.392C61.793 368.533 148.778 455.519 255.92 455.519C363.062 455.519 450.047 368.533 450.047 261.392C450.047 154.25 363.062 67.2647 255.92 67.2647C223.697 67.2647 193.296 75.1304 166.538 89.0501Z" fill="#FFA726"/>
<path fill-rule="evenodd" clip-rule="evenodd" d="M310.998 244.755C313.737 246.581 315.982 249.054 317.535 251.956C319.088 254.858 319.901 258.099 319.901 261.391C319.901 264.682 319.088 267.923 317.535 270.825C315.982 273.727 313.737 276.2 310.998 278.026L223.081 336.638C220.07 338.645 216.571 339.797 212.956 339.972C209.341 340.147 205.747 339.337 202.556 337.63C199.366 335.922 196.698 333.381 194.839 330.276C192.979 327.172 191.997 323.621 191.997 320.002V202.779C191.997 199.161 192.979 195.609 194.839 192.505C196.698 189.401 199.366 186.859 202.556 185.151C205.747 183.444 209.341 182.634 212.956 182.809C216.571 182.984 220.07 184.136 223.081 186.143C252.387 205.681 281.692 225.218 310.998 244.755ZM104.973 105.489L130.693 42.543C131.387 40.847 132.533 39.374 134.006 38.2851C135.48 37.1962 137.224 36.5332 139.049 36.3685C140.874 36.2039 142.709 36.5439 144.354 37.3514C145.999 38.1589 147.39 39.403 148.375 40.9475L190.577 107.096C191.563 108.641 192.105 110.426 192.144 112.258C192.183 114.09 191.718 115.898 190.8 117.483C189.881 119.069 188.545 120.371 186.936 121.249C185.328 122.126 183.509 122.545 181.679 122.458L113.756 119.256C112.158 119.181 110.601 118.723 109.216 117.921C107.832 117.119 106.66 115.996 105.799 114.647C104.939 113.298 104.414 111.762 104.271 110.169C104.127 108.575 104.368 106.97 104.973 105.489Z" fill="#FB8C00"/>
</svg>
