<svg xmlns="http://www.w3.org/2000/svg" xmlns:xlink="http://www.w3.org/1999/xlink" width="400" zoomAndPan="magnify" viewBox="0 0 300 74.999997" height="100" preserveAspectRatio="xMidYMid meet" version="1.0"><defs><g/><clipPath id="ba647f84f6"><path d="M 45 12 L 255 12 L 255 61 L 45 61 Z M 45 12 " clip-rule="nonzero"/></clipPath><clipPath id="943600c8e2"><path d="M 44.609375 19.066406 L 253.695312 10.816406 L 255.46875 55.78125 L 46.382812 64.03125 Z M 44.609375 19.066406 " clip-rule="nonzero"/></clipPath><clipPath id="efc330d978"><path d="M 44.609375 19.066406 L 253.695312 10.816406 L 255.46875 55.78125 L 46.382812 64.03125 Z M 44.609375 19.066406 " clip-rule="nonzero"/></clipPath></defs><g clip-path="url(#ba647f84f6)"><g clip-path="url(#943600c8e2)"><g clip-path="url(#efc330d978)"><path fill="#009cff" d="M 205.773438 30.179688 C 206.710938 30.011719 207.648438 29.847656 208.585938 29.679688 C 208.566406 29.582031 208.546875 29.480469 208.527344 29.382812 C 207.367188 29.542969 206.203125 29.703125 205.042969 29.867188 C 205.042969 29.929688 205.039062 29.992188 205.039062 30.058594 C 205.222656 30.089844 205.402344 30.121094 205.773438 30.179688 Z M 138.96875 32.648438 C 138.742188 32.804688 138.515625 32.964844 138.292969 33.125 C 138.359375 33.191406 138.421875 33.261719 138.488281 33.328125 C 140.875 33.234375 143.261719 33.140625 145.644531 33.042969 C 144.726562 32.785156 143.820312 32.644531 142.910156 32.617188 C 141.660156 32.578125 140.40625 32.628906 138.96875 32.648438 Z M 118.375 32.695312 C 117.152344 32.746094 115.933594 32.792969 114.710938 32.839844 C 115.175781 33.199219 115.636719 33.359375 116.101562 33.363281 C 117.261719 33.375 118.433594 33.199219 119.578125 33.328125 C 120.550781 33.4375 121.476562 34.074219 122.4375 34.113281 C 124.730469 34.210938 127.035156 34.148438 129.332031 34.039062 C 131.832031 33.921875 134.324219 33.6875 136.820312 33.488281 C 137.199219 33.457031 137.570312 33.34375 138.203125 33.214844 C 137.1875 32.90625 136.511719 32.703125 135.847656 32.503906 C 135.824219 32.714844 135.804688 32.945312 135.769531 33.292969 C 134.78125 31.941406 133.273438 32.304688 132.460938 32.664062 C 130.289062 33.613281 128.019531 33.585938 126.027344 33.039062 C 124.414062 32.597656 123.144531 32.207031 121.507812 32.832031 C 120.667969 33.152344 119.550781 32.746094 118.375 32.695312 Z M 60.367188 26.863281 C 58.203125 27.363281 56.277344 26.722656 54.363281 26.035156 C 54.292969 26.007812 54.25 25.90625 54.183594 25.878906 C 53.644531 25.660156 53.101562 25.453125 52.558594 25.246094 C 52.988281 24.679688 53.359375 24.046875 53.863281 23.558594 C 54.964844 22.496094 56.277344 22.746094 57.539062 23.191406 C 58.996094 23.707031 60.285156 23.222656 61.789062 22.714844 C 61.347656 22.152344 60.992188 21.699219 60.636719 21.242188 C 60 20.425781 60.328125 19.957031 61.222656 19.800781 C 62.988281 19.492188 64.75 19.148438 66.53125 18.972656 C 68.0625 18.820312 69.621094 18.941406 71.160156 18.835938 C 73.945312 18.640625 76.722656 18.34375 79.507812 18.136719 C 81.40625 17.992188 83.3125 17.835938 85.214844 17.863281 C 86.023438 17.875 86.742188 17.890625 87.570312 17.722656 C 89.28125 17.378906 91.089844 17.265625 92.820312 17.925781 C 93.058594 18.019531 93.371094 17.945312 93.644531 17.914062 C 95.453125 17.695312 97.261719 17.460938 99.074219 17.253906 C 99.261719 17.230469 99.460938 17.347656 99.65625 17.390625 C 101.355469 17.75 102.988281 17.4375 104.683594 17.144531 C 106.566406 16.820312 108.535156 17.023438 110.464844 16.90625 C 112.5625 16.78125 114.652344 16.488281 116.753906 16.382812 C 119.285156 16.253906 121.820312 16.242188 124.355469 16.183594 C 126.542969 16.132812 128.730469 16.03125 130.914062 16.0625 C 131.65625 16.070312 132.386719 16.457031 133.132812 16.578125 C 133.507812 16.640625 133.914062 16.507812 134.304688 16.445312 C 135.769531 16.203125 137.222656 15.894531 138.695312 15.726562 C 140.246094 15.550781 141.808594 15.449219 143.367188 15.425781 C 146.90625 15.378906 150.449219 15.386719 153.988281 15.425781 C 154.347656 15.429688 154.703125 15.777344 155.089844 15.980469 C 156.125 15.21875 158.09375 15.171875 159.214844 15.90625 C 159.339844 15.984375 159.539062 16.042969 159.667969 16 C 160.488281 15.734375 161.285156 15.386719 162.117188 15.164062 C 162.730469 15.003906 163.386719 14.9375 164.023438 14.929688 C 167.359375 14.890625 170.695312 14.824219 174.03125 14.890625 C 175.8125 14.929688 177.585938 14.625 179.410156 15.304688 C 180.367188 15.664062 181.71875 14.960938 182.894531 14.757812 C 183.242188 14.699219 183.597656 14.679688 183.949219 14.679688 C 186.8125 14.695312 189.679688 14.773438 192.542969 14.722656 C 195.34375 14.675781 198.15625 14.261719 200.9375 14.445312 C 203.648438 14.625 206.296875 14.476562 208.988281 14.234375 C 214.058594 13.777344 219.144531 13.472656 224.222656 13.121094 C 226.230469 12.984375 228.234375 12.863281 230.242188 12.789062 C 232.109375 12.714844 233.976562 12.683594 235.84375 12.695312 C 236.523438 12.699219 237.265625 12.742188 237.867188 13.015625 C 238.777344 13.429688 239.804688 13.933594 238.976562 15.589844 C 240.6875 15.265625 242.121094 14.867188 243.574219 14.761719 C 244.742188 14.675781 245.949219 14.894531 247.109375 15.113281 C 247.304688 15.152344 247.542969 15.9375 247.445312 16.285156 C 247.335938 16.660156 246.90625 17.074219 246.523438 17.214844 C 244.582031 17.945312 242.589844 18.542969 240.652344 19.289062 C 239.679688 19.667969 238.957031 20.445312 237.753906 20.539062 C 235.585938 20.710938 233.457031 21.339844 231.289062 21.585938 C 227.4375 22.023438 223.5625 22.304688 219.699219 22.679688 C 216.972656 22.941406 214.25 23.253906 211.515625 23.757812 C 212.21875 23.800781 212.925781 23.917969 213.621094 23.867188 C 216.765625 23.644531 219.914062 23.449219 223.042969 23.101562 C 227.003906 22.664062 230.960938 22.136719 234.90625 21.550781 C 236.851562 21.265625 238.578125 21.039062 240.140625 22.808594 C 240.652344 23.386719 242.1875 23.121094 243.253906 23.132812 C 244.722656 23.152344 246.191406 23.066406 247.660156 23.019531 C 247.9375 23.011719 248.308594 23.097656 248.480469 22.953125 C 249.628906 22.003906 250.652344 22.671875 251.6875 23.144531 C 252.265625 23.410156 252.839844 23.671875 253.386719 23.992188 C 253.675781 24.160156 253.894531 24.441406 254.148438 24.671875 C 253.898438 24.90625 253.675781 25.285156 253.390625 25.347656 C 252.496094 25.535156 251.578125 25.621094 250.667969 25.714844 C 249.753906 25.808594 248.832031 25.867188 247.910156 25.945312 C 244.519531 26.234375 241.132812 26.535156 237.738281 26.789062 C 237.191406 26.832031 236.628906 26.671875 236.074219 26.613281 C 235.523438 26.558594 234.964844 26.449219 234.417969 26.476562 C 232.667969 26.5625 230.910156 26.640625 229.167969 26.835938 C 227.457031 27.027344 225.769531 27.433594 224.058594 27.617188 C 220.179688 28.027344 216.285156 28.335938 212.402344 28.738281 C 211.414062 28.84375 210.445312 29.144531 209.46875 29.355469 C 209.480469 29.515625 209.496094 29.675781 209.507812 29.835938 C 210.910156 29.78125 212.3125 29.6875 213.710938 29.679688 C 216.574219 29.664062 219.4375 29.699219 222.296875 29.710938 C 223.691406 29.714844 225.09375 29.800781 226.480469 29.695312 C 229.144531 29.488281 231.792969 29.058594 234.457031 28.929688 C 236.753906 28.816406 239.066406 28.996094 241.375 29.042969 C 242.214844 29.058594 243.058594 29.121094 243.894531 29.058594 C 245.992188 28.898438 246.925781 29.507812 247.625 31.761719 C 246.253906 32.128906 244.886719 32.492188 243.523438 32.855469 C 243.5 33 243.472656 33.144531 243.449219 33.289062 C 244.480469 33.6875 245.488281 34.273438 246.554688 34.433594 C 247.550781 34.582031 248.613281 34.28125 249.566406 34.183594 C 249.496094 34.863281 249.414062 35.445312 249.382812 36.03125 C 249.296875 37.773438 247.859375 38.253906 246.636719 38.539062 C 244.945312 38.9375 243.152344 38.894531 241.402344 39.046875 C 241.039062 39.082031 240.675781 39.132812 240.316406 39.171875 C 240.304688 39.355469 240.296875 39.542969 240.289062 39.726562 C 241.210938 39.777344 242.136719 39.886719 243.054688 39.867188 C 244.40625 39.847656 245.753906 39.710938 247.101562 39.671875 C 247.898438 39.644531 248.832031 39.460938 249.460938 39.800781 C 250.589844 40.410156 251.550781 41.34375 252.546875 42.1875 C 252.636719 42.265625 252.542969 42.765625 252.390625 42.875 C 252.046875 43.125 251.617188 43.402344 251.21875 43.410156 C 247.886719 43.472656 244.550781 43.359375 241.226562 43.53125 C 237.25 43.734375 233.269531 44.085938 229.3125 44.539062 C 227.785156 44.714844 226.3125 45.359375 224.820312 46.035156 C 226.140625 45.984375 227.460938 45.933594 228.777344 45.878906 C 229.007812 45.867188 229.277344 45.746094 229.464844 45.824219 C 231.988281 46.882812 234.484375 45.859375 236.992188 45.769531 C 240.246094 45.652344 243.523438 45.25 246.722656 46.34375 C 247.316406 46.546875 248.027344 46.375 248.667969 46.472656 C 249.121094 46.539062 249.554688 46.765625 250 46.921875 C 249.757812 47.183594 249.460938 47.410156 249.285156 47.710938 C 248.675781 48.773438 248.113281 49.859375 247.523438 50.929688 C 247.410156 51.136719 247.164062 51.511719 247.148438 51.503906 C 245.90625 50.832031 245.167969 51.964844 244.210938 52.296875 C 243.378906 52.585938 242.53125 52.84375 241.6875 53.101562 C 240.570312 53.441406 239.464844 53.832031 238.328125 54.082031 C 237.519531 54.261719 236.667969 54.265625 235.835938 54.320312 C 235.433594 54.347656 235.003906 54.230469 234.625 54.328125 C 232.679688 54.828125 230.761719 55.488281 228.792969 55.875 C 226.867188 56.253906 224.890625 56.363281 222.933594 56.601562 C 221.988281 56.714844 221.050781 56.914062 220.101562 56.976562 C 216.363281 57.230469 212.621094 57.445312 208.882812 57.679688 C 208 57.738281 207.117188 57.878906 206.234375 57.894531 C 204.03125 57.925781 201.816406 57.8125 199.617188 57.941406 C 198.152344 58.03125 196.734375 58.195312 195.230469 58.113281 C 191.886719 57.929688 188.519531 58.183594 185.160156 58.234375 C 184.480469 58.242188 183.800781 58.09375 183.121094 58.078125 C 181.21875 58.027344 179.304688 58.105469 177.410156 57.949219 C 175.578125 57.800781 173.769531 57.410156 171.949219 57.144531 C 171.355469 57.058594 170.757812 56.960938 170.164062 56.976562 C 166.308594 57.074219 162.449219 57.21875 158.59375 57.3125 C 156.878906 57.355469 155.164062 57.257812 153.453125 57.34375 C 152.261719 57.402344 151.089844 57.730469 149.898438 57.824219 C 148.070312 57.972656 146.1875 58.332031 144.414062 58.046875 C 141.828125 57.628906 139.453125 58.691406 136.949219 58.605469 C 134.03125 58.503906 131.113281 58.429688 128.195312 58.386719 C 127.472656 58.375 126.703125 58.402344 126.039062 58.640625 C 123.859375 59.421875 121.742188 59.316406 119.601562 58.535156 C 119.296875 58.421875 118.855469 58.457031 118.550781 58.597656 C 116.894531 59.351562 115.242188 59.027344 113.582031 58.664062 C 113.234375 58.585938 112.867188 58.515625 112.515625 58.539062 C 110.472656 58.671875 108.429688 58.953125 106.386719 58.957031 C 102.066406 58.960938 97.738281 58.671875 93.425781 58.8125 C 90.542969 58.90625 87.6875 59.675781 84.796875 59.894531 C 81.679688 60.132812 78.578125 60.710938 75.402344 60.234375 C 73.484375 59.949219 71.496094 60.148438 69.542969 60.074219 C 67.0625 59.976562 64.558594 60 62.113281 59.640625 C 60.082031 59.34375 58.214844 59.601562 56.25 59.992188 C 55.285156 60.1875 54.160156 59.558594 53.101562 59.332031 C 52.007812 59.09375 50.890625 58.945312 49.816406 58.644531 C 49.453125 58.542969 49.132812 58.125 48.917969 57.773438 C 48.867188 57.691406 49.300781 57.273438 49.550781 57.054688 C 49.910156 56.746094 50.304688 56.476562 50.6875 56.1875 C 50.332031 55.816406 50.019531 55.492188 49.847656 55.320312 C 48.980469 55.148438 48.191406 55.035156 47.425781 54.832031 C 46.878906 54.6875 46.210938 53.617188 46.132812 52.914062 C 45.976562 51.582031 46.636719 50.109375 47.75 49.644531 C 48.625 49.277344 49.570312 49.078125 50.5 48.859375 C 51.695312 48.578125 52.890625 48.285156 54.101562 48.109375 C 55.90625 47.84375 57.722656 47.6875 59.53125 47.457031 C 60.140625 47.378906 60.738281 47.210938 61.359375 46.894531 C 58.71875 46.519531 56.292969 46.402344 54.058594 44.253906 C 52.089844 42.359375 50.800781 40.503906 50.496094 38.167969 C 49.894531 38.449219 49.417969 38.671875 48.9375 38.894531 C 48.835938 38.800781 48.730469 38.707031 48.628906 38.613281 C 49.230469 37.867188 49.746094 37.023438 50.453125 36.398438 C 51.824219 35.183594 51.671875 34.058594 49.945312 33.195312 C 48.742188 32.59375 47.585938 31.90625 46.382812 31.304688 C 45.226562 30.730469 45.035156 29.828125 45.574219 28.398438 C 46.980469 28.34375 48.605469 28.238281 50.230469 28.226562 C 52.269531 28.207031 54.308594 28.238281 56.347656 28.300781 C 57.585938 28.335938 58.820312 28.542969 60.058594 28.539062 C 60.753906 28.535156 61.449219 28.257812 62.148438 28.101562 C 62.164062 27.941406 62.179688 27.777344 62.195312 27.613281 C 61.613281 27.355469 61.03125 27.097656 60.367188 26.863281 " fill-opacity="1" fill-rule="nonzero"/></g></g></g><g fill="#009cff" fill-opacity="1"><g transform="translate(141.595835, 38.874994)"><g><path d="M 1.203125 0.046875 C 0.890625 0.046875 0.644531 -0.046875 0.46875 -0.234375 C 0.300781 -0.429688 0.21875 -0.707031 0.21875 -1.0625 C 0.21875 -1.414062 0.304688 -1.691406 0.484375 -1.890625 C 0.660156 -2.085938 0.90625 -2.1875 1.21875 -2.1875 C 1.320312 -2.1875 1.425781 -2.171875 1.53125 -2.140625 C 1.632812 -2.117188 1.710938 -2.09375 1.765625 -2.0625 L 1.671875 -1.796875 C 1.597656 -1.828125 1.519531 -1.847656 1.4375 -1.859375 C 1.351562 -1.878906 1.28125 -1.890625 1.21875 -1.890625 C 0.78125 -1.890625 0.5625 -1.613281 0.5625 -1.0625 C 0.5625 -0.800781 0.613281 -0.597656 0.71875 -0.453125 C 0.820312 -0.316406 0.976562 -0.25 1.1875 -0.25 C 1.363281 -0.25 1.546875 -0.285156 1.734375 -0.359375 L 1.734375 -0.078125 C 1.597656 0.00390625 1.421875 0.046875 1.203125 0.046875 Z M 1.203125 0.046875 "/></g></g><g transform="translate(143.500131, 38.874994)"><g><path d="M 2.1875 -1.078125 C 2.1875 -0.722656 2.097656 -0.445312 1.921875 -0.25 C 1.753906 -0.0507812 1.515625 0.046875 1.203125 0.046875 C 1.003906 0.046875 0.832031 0 0.6875 -0.09375 C 0.539062 -0.1875 0.425781 -0.316406 0.34375 -0.484375 C 0.257812 -0.648438 0.21875 -0.847656 0.21875 -1.078125 C 0.21875 -1.421875 0.304688 -1.691406 0.484375 -1.890625 C 0.660156 -2.085938 0.90625 -2.1875 1.21875 -2.1875 C 1.507812 -2.1875 1.742188 -2.082031 1.921875 -1.875 C 2.097656 -1.675781 2.1875 -1.410156 2.1875 -1.078125 Z M 0.5625 -1.078125 C 0.5625 -0.796875 0.613281 -0.582031 0.71875 -0.4375 C 0.832031 -0.300781 0.992188 -0.234375 1.203125 -0.234375 C 1.421875 -0.234375 1.582031 -0.300781 1.6875 -0.4375 C 1.800781 -0.582031 1.859375 -0.796875 1.859375 -1.078125 C 1.859375 -1.347656 1.800781 -1.550781 1.6875 -1.6875 C 1.582031 -1.832031 1.421875 -1.90625 1.203125 -1.90625 C 0.992188 -1.90625 0.832031 -1.832031 0.71875 -1.6875 C 0.613281 -1.550781 0.5625 -1.347656 0.5625 -1.078125 Z M 0.5625 -1.078125 "/></g></g><g transform="translate(145.916145, 38.874994)"><g><path d="M 1.796875 -0.28125 L 1.78125 -0.28125 C 1.632812 -0.0625 1.410156 0.046875 1.109375 0.046875 C 0.828125 0.046875 0.609375 -0.046875 0.453125 -0.234375 C 0.296875 -0.429688 0.21875 -0.707031 0.21875 -1.0625 C 0.21875 -1.414062 0.296875 -1.691406 0.453125 -1.890625 C 0.609375 -2.085938 0.828125 -2.1875 1.109375 -2.1875 C 1.398438 -2.1875 1.625 -2.078125 1.78125 -1.859375 L 1.8125 -1.859375 L 1.78125 -2.171875 L 1.78125 -3.046875 L 2.109375 -3.046875 L 2.109375 0 L 1.84375 0 Z M 1.15625 -0.234375 C 1.375 -0.234375 1.53125 -0.289062 1.625 -0.40625 C 1.726562 -0.53125 1.78125 -0.726562 1.78125 -1 L 1.78125 -1.0625 C 1.78125 -1.363281 1.726562 -1.578125 1.625 -1.703125 C 1.53125 -1.835938 1.375 -1.90625 1.15625 -1.90625 C 0.957031 -1.90625 0.804688 -1.832031 0.703125 -1.6875 C 0.609375 -1.539062 0.5625 -1.332031 0.5625 -1.0625 C 0.5625 -0.789062 0.609375 -0.582031 0.703125 -0.4375 C 0.804688 -0.300781 0.957031 -0.234375 1.15625 -0.234375 Z M 1.15625 -0.234375 "/></g></g><g transform="translate(148.367315, 38.874994)"><g><path d="M 1.25 0.046875 C 0.9375 0.046875 0.6875 -0.0507812 0.5 -0.25 C 0.3125 -0.445312 0.21875 -0.710938 0.21875 -1.046875 C 0.21875 -1.398438 0.300781 -1.675781 0.46875 -1.875 C 0.644531 -2.082031 0.878906 -2.1875 1.171875 -2.1875 C 1.429688 -2.1875 1.640625 -2.097656 1.796875 -1.921875 C 1.953125 -1.742188 2.03125 -1.507812 2.03125 -1.21875 L 2.03125 -1.015625 L 0.5625 -1.015625 C 0.570312 -0.765625 0.632812 -0.570312 0.75 -0.4375 C 0.875 -0.3125 1.046875 -0.25 1.265625 -0.25 C 1.492188 -0.25 1.71875 -0.296875 1.9375 -0.390625 L 1.9375 -0.09375 C 1.820312 -0.0507812 1.710938 -0.0195312 1.609375 0 C 1.515625 0.03125 1.394531 0.046875 1.25 0.046875 Z M 1.15625 -1.90625 C 0.988281 -1.90625 0.851562 -1.847656 0.75 -1.734375 C 0.644531 -1.628906 0.582031 -1.476562 0.5625 -1.28125 L 1.6875 -1.28125 C 1.6875 -1.476562 1.640625 -1.628906 1.546875 -1.734375 C 1.460938 -1.847656 1.332031 -1.90625 1.15625 -1.90625 Z M 1.15625 -1.90625 "/></g></g><g transform="translate(150.611455, 38.874994)"><g><path d="M 1.15625 -0.234375 C 1.375 -0.234375 1.53125 -0.289062 1.625 -0.40625 C 1.726562 -0.519531 1.78125 -0.71875 1.78125 -1 L 1.78125 -1.0625 C 1.78125 -1.363281 1.726562 -1.578125 1.625 -1.703125 C 1.53125 -1.835938 1.375 -1.90625 1.15625 -1.90625 C 0.957031 -1.90625 0.804688 -1.832031 0.703125 -1.6875 C 0.609375 -1.539062 0.5625 -1.332031 0.5625 -1.0625 C 0.5625 -0.789062 0.609375 -0.582031 0.703125 -0.4375 C 0.804688 -0.300781 0.957031 -0.234375 1.15625 -0.234375 Z M 1.109375 0.046875 C 0.828125 0.046875 0.609375 -0.0507812 0.453125 -0.25 C 0.296875 -0.445312 0.21875 -0.71875 0.21875 -1.0625 C 0.21875 -1.414062 0.296875 -1.691406 0.453125 -1.890625 C 0.609375 -2.085938 0.828125 -2.1875 1.109375 -2.1875 C 1.398438 -2.1875 1.625 -2.070312 1.78125 -1.84375 L 1.8125 -1.84375 L 1.859375 -2.140625 L 2.109375 -2.140625 L 2.109375 0.96875 L 1.78125 0.96875 L 1.78125 0.046875 C 1.78125 -0.0859375 1.789062 -0.195312 1.8125 -0.28125 L 1.78125 -0.28125 C 1.632812 -0.0625 1.410156 0.046875 1.109375 0.046875 Z M 1.109375 0.046875 "/></g></g><g transform="translate(153.062625, 38.874994)"><g><path d="M 0.65625 -2.140625 L 0.65625 -0.75 C 0.65625 -0.570312 0.691406 -0.441406 0.765625 -0.359375 C 0.847656 -0.273438 0.972656 -0.234375 1.140625 -0.234375 C 1.367188 -0.234375 1.53125 -0.289062 1.625 -0.40625 C 1.726562 -0.53125 1.78125 -0.734375 1.78125 -1.015625 L 1.78125 -2.140625 L 2.109375 -2.140625 L 2.109375 0 L 1.84375 0 L 1.796875 -0.28125 L 1.78125 -0.28125 C 1.71875 -0.175781 1.625 -0.09375 1.5 -0.03125 C 1.382812 0.0195312 1.25 0.046875 1.09375 0.046875 C 0.832031 0.046875 0.640625 -0.015625 0.515625 -0.140625 C 0.390625 -0.265625 0.328125 -0.460938 0.328125 -0.734375 L 0.328125 -2.140625 Z M 0.65625 -2.140625 "/></g></g><g transform="translate(155.517701, 38.874994)"><g><path d="M 0.671875 0 L 0.34375 0 L 0.34375 -2.140625 L 0.671875 -2.140625 Z M 0.3125 -2.71875 C 0.3125 -2.789062 0.328125 -2.84375 0.359375 -2.875 C 0.398438 -2.914062 0.453125 -2.9375 0.515625 -2.9375 C 0.566406 -2.9375 0.609375 -2.914062 0.640625 -2.875 C 0.679688 -2.84375 0.703125 -2.789062 0.703125 -2.71875 C 0.703125 -2.644531 0.679688 -2.585938 0.640625 -2.546875 C 0.609375 -2.515625 0.566406 -2.5 0.515625 -2.5 C 0.453125 -2.5 0.398438 -2.515625 0.359375 -2.546875 C 0.328125 -2.585938 0.3125 -2.644531 0.3125 -2.71875 Z M 0.3125 -2.71875 "/></g></g><g transform="translate(156.52942, 38.874994)"><g><path d="M 1.71875 0 L 0.15625 0 L 0.15625 -0.21875 L 1.328125 -1.890625 L 0.234375 -1.890625 L 0.234375 -2.140625 L 1.6875 -2.140625 L 1.6875 -1.890625 L 0.53125 -0.25 L 1.71875 -0.25 Z M 1.71875 0 "/></g></g></g></svg>